<svg width="32" height="32" viewBox="0 0 24 24" stroke="#000000" fill="none" stroke-linejoin="round" stroke-width="1.125" stroke-linecap="round" xmlns="http://www.w3.org/2000/svg"><path d="M7.5 15.5H11.5M7.5 17.5H14.5M6.5 21H17C17.8284 21 18.5 20.3284 18.5 19.5V4.5C18.5 3.67157 17.8284 3 17 3H6.5C5.67157 3 5 3.67157 5 4.5V19.5C5 20.3284 5.67157 21 6.5 21ZM7.5 3H12V9.75C12 9.99025 11.6942 10.0922 11.55 9.9L10.95 9.1C10.35 8.3 9.15 8.3 8.55 9.1L7.95 9.9C7.80585 10.0922 7.5 9.99025 7.5 9.75V3Z"></path></svg>