<svg width="32" height="32" viewBox="0 0 24 24" stroke="#000000" fill="none" stroke-linejoin="round" stroke-width="1.125" stroke-linecap="round" xmlns="http://www.w3.org/2000/svg"><path d="M13.5 2.5H10.5C6.72876 2.5 4.84315 2.5 3.67157 3.67157C2.5 4.84315 2.5 6.72876 2.5 10.5V13.5C2.5 17.2712 2.5 19.1569 3.67157 20.3284C4.84315 21.5 6.72876 21.5 10.5 21.5H13.5C17.2712 21.5 19.1569 21.5 20.3284 20.3284C21.5 19.1569 21.5 17.2712 21.5 13.5V10.5C21.5 6.72876 21.5 4.84315 20.3284 3.67157C19.1569 2.5 17.2712 2.5 13.5 2.5Z"></path><path d="M7 12H17M12 7L12 17"></path></svg>